<?xml version="1.0" standalone="no"?>
<!DOCTYPE svg PUBLIC "-//W3C//DTD SVG 20010904//EN"
 "http://www.w3.org/TR/2001/REC-SVG-20010904/DTD/svg10.dtd">
<svg version="1.0" xmlns="http://www.w3.org/2000/svg"
 width="512.000000pt" height="512.000000pt" viewBox="0 0 512.000000 512.000000"
 preserveAspectRatio="xMidYMid meet">

<g transform="translate(0.000000,512.000000) scale(0.100000,-0.100000)"
fill="#000000" stroke="none">
<path d="M1 3878 c1 -685 5 -1195 10 -1135 43 598 288 1150 707 1589 433 452
1031 733 1657 778 55 4 -457 8 -1137 9 l-1238 1 1 -1242z"/>
<path d="M2745 5110 c626 -45 1224 -326 1657 -778 419 -439 664 -991 707
-1589 5 -60 9 450 10 1135 l1 1242 -1237 -1 c-681 -1 -1193 -5 -1138 -9z"/>
<path d="M1930 2665 l-245 -245 248 -247 247 -248 52 53 53 52 -188 188 c-103
103 -187 192 -187 197 0 5 84 94 187 197 l188 188 -55 55 -55 55 -245 -245z"/>
<path d="M2842 2857 l-52 -52 192 -192 193 -193 -193 -193 -192 -192 55 -55
55 -55 246 247 247 246 -234 233 c-129 129 -241 239 -250 246 -12 10 -24 4
-67 -40z"/>
<path d="M2555 2868 c-9 -43 -67 -282 -150 -622 -47 -193 -62 -272 -54 -277
15 -9 128 -33 133 -28 6 6 226 896 226 913 0 15 -34 27 -112 41 -35 7 -36 6
-43 -27z"/>
<path d="M1 1243 l-1 -1243 1238 1 c680 1 1192 5 1137 9 -626 45 -1224 326
-1657 778 -419 439 -664 991 -707 1589 -5 60 -9 -450 -10 -1134z"/>
<path d="M5107 2373 c-10 -191 -50 -398 -118 -613 -17 -52 -34 -99 -38 -105
-4 -5 -18 -38 -31 -72 -13 -37 -27 -60 -33 -56 -6 3 -7 1 -3 -6 10 -15 -84
-202 -97 -194 -6 3 -7 1 -3 -6 7 -10 -93 -181 -146 -251 -92 -121 -140 -180
-123 -151 5 10 4 12 -4 7 -6 -4 -9 -11 -6 -16 6 -10 -310 -330 -325 -330 -6 0
-27 -16 -47 -35 -20 -19 -40 -35 -44 -35 -3 0 -26 -15 -49 -34 -24 -19 -49
-32 -56 -29 -6 2 -15 -1 -20 -8 -5 -8 -3 -10 7 -5 8 4 5 0 -6 -8 -11 -9 -25
-14 -33 -11 -7 2 -11 1 -7 -4 11 -19 -325 -199 -346 -185 -7 4 -9 3 -6 -3 5
-9 -154 -77 -201 -87 -9 -1 -30 -9 -47 -15 -55 -23 -269 -73 -316 -75 -26 0
-45 -4 -43 -7 3 -6 -159 -25 -271 -32 -27 -2 507 -4 1188 -5 l1237 -2 0 1240
c0 682 -2 1240 -4 1240 -1 0 -6 -48 -9 -107z"/>
<path d="M4264 688 l-19 -23 23 19 c21 18 27 26 19 26 -2 0 -12 -10 -23 -22z"/>
</g>
</svg>
