<?xml version="1.0" standalone="no"?>
<!DOCTYPE svg PUBLIC "-//W3C//DTD SVG 20010904//EN"
 "http://www.w3.org/TR/2001/REC-SVG-20010904/DTD/svg10.dtd">
<svg version="1.0" xmlns="http://www.w3.org/2000/svg"
 width="164.000000pt" height="164.000000pt" viewBox="0 0 164.000000 164.000000"
 preserveAspectRatio="xMidYMid meet">

<g transform="translate(0.000000,164.000000) scale(0.100000,-0.100000)"
fill="#000000" stroke="none">
<path d="M44 1518 c-43 -20 -44 -37 -44 -544 l0 -485 25 -24 24 -25 291 0 290
0 0 -90 0 -90 -114 0 c-63 0 -122 -3 -131 -6 -26 -10 -46 -59 -36 -87 22 -57
19 -57 468 -57 287 0 420 3 437 11 35 16 50 63 31 99 -8 15 -22 30 -30 34 -9
3 -68 6 -131 6 l-114 0 0 90 0 90 290 0 291 0 24 25 25 24 0 485 c0 334 -3
493 -11 509 -6 14 -22 30 -36 36 -32 15 -1518 14 -1549 -1z m1476 -533 l0
-425 -700 0 -700 0 0 425 0 425 700 0 700 0 0 -425z"/>
<path d="M866 1268 c-27 -43 -178 -529 -172 -554 7 -28 49 -42 71 -24 16 13
185 523 185 558 0 42 -61 56 -84 20z"/>
<path d="M490 1082 c-117 -58 -135 -70 -138 -93 -2 -15 4 -31 13 -39 26 -21
264 -130 285 -130 10 0 25 9 33 21 27 38 10 59 -85 103 l-89 40 89 42 c95 44
112 65 85 103 -8 12 -24 21 -36 21 -12 -1 -83 -31 -157 -68z"/>
<path d="M957 1129 c-27 -38 -10 -59 85 -103 l89 -42 -89 -40 c-95 -44 -112
-65 -85 -103 8 -12 22 -21 33 -21 22 0 258 107 283 128 11 10 17 26 15 41 -3
22 -22 35 -138 93 -74 37 -145 67 -157 68 -12 0 -28 -9 -36 -21z"/>
</g>
</svg>
